REM DIRINDEX 1\2,1\3\5,1\3\6,1\4\7,1\4\8
REM DIRNAME folder01,folder02,folder03,folder04,folder05,folder06,folder07,folder08
TITLE ""
FILE "JE_12.mp3" MP3
  TRACK 01 AUDIO
    TITLE "0:"
    INDEX 01 00:00:00
  TRACK 02 AUDIO
    TITLE "7:cjc139_3451"
    INDEX 01 00:00:17
  TRACK 03 AUDIO
    TITLE "0:"
    INDEX 01 00:03:10
  TRACK 04 AUDIO
    TITLE "8:cjc139_3452"
    INDEX 01 00:05:71
  TRACK 05 AUDIO
    TITLE "0:"
    INDEX 01 00:08:62
  TRACK 06 AUDIO
    TITLE "7:cjc139_3453"
    INDEX 01 00:11:46
  TRACK 07 AUDIO
    TITLE "0:"
    INDEX 01 00:14:19
  TRACK 08 AUDIO
    TITLE "8:cjc139_3454"
    INDEX 01 00:17:06
  TRACK 09 AUDIO
    TITLE "0:"
    INDEX 01 00:20:02
  TRACK 10 AUDIO
    TITLE "7:cjc139_3455"
    INDEX 01 00:22:64
  TRACK 11 AUDIO
    TITLE "0:"
    INDEX 01 00:25:35
  TRACK 12 AUDIO
    TITLE "8:cjc139_3456"
    INDEX 01 00:28:19
  TRACK 13 AUDIO
    TITLE "0:"
    INDEX 01 00:30:34
  TRACK 14 AUDIO
    TITLE "7:cjc139_3457"
    INDEX 01 00:33:21
  TRACK 15 AUDIO
    TITLE "0:"
    INDEX 01 00:37:14
  TRACK 16 AUDIO
    TITLE "8:cjc139_3458"
    INDEX 01 00:40:01
  TRACK 17 AUDIO
    TITLE "0:"
    INDEX 01 00:43:60
  TRACK 18 AUDIO
    TITLE "7:cjc139_3459"
    INDEX 01 00:46:47
  TRACK 19 AUDIO
    TITLE "0:"
    INDEX 01 00:51:03
  TRACK 20 AUDIO
    TITLE "8:cjc139_3460"
    INDEX 01 00:53:64
  TRACK 21 AUDIO
    TITLE "0:"
    INDEX 01 00:57:74
  TRACK 22 AUDIO
    TITLE "7:cjc139_3461"
    INDEX 01 01:00:57
  TRACK 23 AUDIO
    TITLE "0:"
    INDEX 01 01:04:70
  TRACK 24 AUDIO
    TITLE "8:cjc139_3462"
    INDEX 01 01:07:55
  TRACK 25 AUDIO
    TITLE "0:"
    INDEX 01 01:11:02
  TRACK 26 AUDIO
    TITLE "7:cjc139_3463"
    INDEX 01 01:13:61
  TRACK 27 AUDIO
    TITLE "0:"
    INDEX 01 01:18:31
  TRACK 28 AUDIO
    TITLE "8:cjc139_3464"
    INDEX 01 01:21:18
  TRACK 29 AUDIO
    TITLE "0:"
    INDEX 01 01:24:67
  TRACK 30 AUDIO
    TITLE "7:cjc139_3465"
    INDEX 01 01:27:51
  TRACK 31 AUDIO
    TITLE "0:"
    INDEX 01 01:29:68
  TRACK 32 AUDIO
    TITLE "8:cjc139_3466"
    INDEX 01 01:32:55
  TRACK 33 AUDIO
    TITLE "0:"
    INDEX 01 01:35:06
  TRACK 34 AUDIO
    TITLE "7:cjc139_3467"
    INDEX 01 01:37:66
  TRACK 35 AUDIO
    TITLE "0:"
    INDEX 01 01:40:21
  TRACK 36 AUDIO
    TITLE "8:cjc139_3468"
    INDEX 01 01:43:07
  TRACK 37 AUDIO
    TITLE "0:"
    INDEX 01 01:46:10
  TRACK 38 AUDIO
    TITLE "7:cjc139_3469"
    INDEX 01 01:48:71
  TRACK 39 AUDIO
    TITLE "0:"
    INDEX 01 01:52:14
  TRACK 40 AUDIO
    TITLE "8:cjc139_3470"
    INDEX 01 01:55:03
  TRACK 41 AUDIO
    TITLE "0:"
    INDEX 01 01:58:03
  TRACK 42 AUDIO
    TITLE "7:cjc139_3471"
    INDEX 01 02:00:65
  TRACK 43 AUDIO
    TITLE "0:"
    INDEX 01 02:03:47
  TRACK 44 AUDIO
    TITLE "8:cjc139_3472"
    INDEX 01 02:06:32
  TRACK 45 AUDIO
    TITLE "0:"
    INDEX 01 02:08:52
  TRACK 46 AUDIO
    TITLE "7:cjc139_3473"
    INDEX 01 02:11:35
  TRACK 47 AUDIO
    TITLE "0:"
    INDEX 01 02:14:41
  TRACK 48 AUDIO
    TITLE "8:cjc139_3474"
    INDEX 01 02:17:24
  TRACK 49 AUDIO
    TITLE "0:"
    INDEX 01 02:20:16
  TRACK 50 AUDIO
    TITLE "7:cjc139_3475"
    INDEX 01 02:23:01
  TRACK 51 AUDIO
    TITLE "0:"
    INDEX 01 02:27:05
  TRACK 52 AUDIO
    TITLE "8:cjc139_3476"
    INDEX 01 02:29:68
  TRACK 53 AUDIO
    TITLE "0:"
    INDEX 01 02:32:51
  TRACK 54 AUDIO
    TITLE "7:cjc139_3477"
    INDEX 01 02:35:36
  TRACK 55 AUDIO
    TITLE "0:"
    INDEX 01 02:38:36
  TRACK 56 AUDIO
    TITLE "8:cjc139_3478"
    INDEX 01 02:41:22
  TRACK 57 AUDIO
    TITLE "0:"
    INDEX 01 02:43:66
  TRACK 58 AUDIO
    TITLE "7:cjc139_3479"
    INDEX 01 02:46:51
  TRACK 59 AUDIO
    TITLE "0:"
    INDEX 01 02:50:49
  TRACK 60 AUDIO
    TITLE "8:cjc139_3480"
    INDEX 01 02:53:37
  TRACK 61 AUDIO
    TITLE "0:"
    INDEX 01 02:56:67
  TRACK 62 AUDIO
    TITLE "7:cjc139_3481"
    INDEX 01 02:59:54
  TRACK 63 AUDIO
    TITLE "0:"
    INDEX 01 03:03:55
  TRACK 64 AUDIO
    TITLE "8:cjc139_3482"
    INDEX 01 03:06:42
  TRACK 65 AUDIO
    TITLE "0:"
    INDEX 01 03:10:16
  TRACK 66 AUDIO
    TITLE "7:cjc139_3483"
    INDEX 01 03:13:01
  TRACK 67 AUDIO
    TITLE "0:"
    INDEX 01 03:15:66
  TRACK 68 AUDIO
    TITLE "8:cjc139_3484"
    INDEX 01 03:18:53
  TRACK 69 AUDIO
    TITLE "0:"
    INDEX 01 03:21:38
  TRACK 70 AUDIO
    TITLE "7:cjc139_3485"
    INDEX 01 03:24:26
  TRACK 71 AUDIO
    TITLE "0:"
    INDEX 01 03:27:19
  TRACK 72 AUDIO
    TITLE "8:cjc139_3486"
    INDEX 01 03:30:07
  TRACK 73 AUDIO
    TITLE "0:"
    INDEX 01 03:32:71
  TRACK 74 AUDIO
    TITLE "7:cjc139_3487"
    INDEX 01 03:35:59
  TRACK 75 AUDIO
    TITLE "0:"
    INDEX 01 03:38:38
  TRACK 76 AUDIO
    TITLE "8:cjc139_3488"
    INDEX 01 03:41:23
  TRACK 77 AUDIO
    TITLE "0:"
    INDEX 01 03:44:01
  TRACK 78 AUDIO
    TITLE "7:cjc139_3489"
    INDEX 01 03:46:59
  TRACK 79 AUDIO
    TITLE "0:"
    INDEX 01 03:50:61
  TRACK 80 AUDIO
    TITLE "8:cjc139_3490"
    INDEX 01 03:53:49
  TRACK 81 AUDIO
    TITLE "0:"
    INDEX 01 03:56:73
  TRACK 82 AUDIO
    TITLE "7:cjc139_3491"
    INDEX 01 03:59:58
  TRACK 83 AUDIO
    TITLE "0:"
    INDEX 01 04:04:43
  TRACK 84 AUDIO
    TITLE "8:cjc139_3492"
    INDEX 01 04:07:30
  TRACK 85 AUDIO
    TITLE "0:"
    INDEX 01 04:11:30
  TRACK 86 AUDIO
    TITLE "7:cjc139_3493"
    INDEX 01 04:14:16
  TRACK 87 AUDIO
    TITLE "0:"
    INDEX 01 04:18:71
  TRACK 88 AUDIO
    TITLE "8:cjc139_3494"
    INDEX 01 04:21:59
  TRACK 89 AUDIO
    TITLE "0:"
    INDEX 01 04:25:53
  TRACK 90 AUDIO
    TITLE "7:cjc139_3495"
    INDEX 01 04:28:40
  TRACK 91 AUDIO
    TITLE "0:"
    INDEX 01 04:32:71
  TRACK 92 AUDIO
    TITLE "8:cjc139_3496"
    INDEX 01 04:35:58
  TRACK 93 AUDIO
    TITLE "0:"
    INDEX 01 04:39:42
  TRACK 94 AUDIO
    TITLE "7:cjc139_3497"
    INDEX 01 04:42:26
  TRACK 95 AUDIO
    TITLE "0:"
    INDEX 01 04:45:25
  TRACK 96 AUDIO
    TITLE "8:cjc139_3498"
    INDEX 01 04:48:11
  TRACK 97 AUDIO
    TITLE "0:"
    INDEX 01 04:51:41
  TRACK 98 AUDIO
    TITLE "7:cjc139_3499"
    INDEX 01 04:54:26
  TRACK 99 AUDIO
    TITLE "0:"
    INDEX 01 04:57:55
  TRACK 100 AUDIO
    TITLE "8:cjc139_3500"
    INDEX 01 05:00:42
  TRACK 101 AUDIO
    TITLE "0:"
    INDEX 01 05:03:50
  TRACK 102 AUDIO
    TITLE "7:cjc139_3501"
    INDEX 01 05:06:35
  TRACK 103 AUDIO
    TITLE "0:"
    INDEX 01 05:09:31
  TRACK 104 AUDIO
    TITLE "8:cjc139_3502"
    INDEX 01 05:12:18
  TRACK 105 AUDIO
    TITLE "0:"
    INDEX 01 05:15:18
  TRACK 106 AUDIO
    TITLE "7:cjc139_3503"
    INDEX 01 05:18:03
  TRACK 107 AUDIO
    TITLE "0:"
    INDEX 01 05:21:36
  TRACK 108 AUDIO
    TITLE "8:cjc139_3504"
    INDEX 01 05:24:21
  TRACK 109 AUDIO
    TITLE "0:"
    INDEX 01 05:27:60
  TRACK 110 AUDIO
    TITLE "7:cjc139_3505"
    INDEX 01 05:30:47
  TRACK 111 AUDIO
    TITLE "0:"
    INDEX 01 05:33:04
  TRACK 112 AUDIO
    TITLE "8:cjc139_3506"
    INDEX 01 05:35:68
  TRACK 113 AUDIO
    TITLE "0:"
    INDEX 01 05:38:03
  TRACK 114 AUDIO
    TITLE "7:cjc139_3507"
    INDEX 01 05:40:67
  TRACK 115 AUDIO
    TITLE "0:"
    INDEX 01 05:42:60
  TRACK 116 AUDIO
    TITLE "8:cjc139_3508"
    INDEX 01 05:45:45
  TRACK 117 AUDIO
    TITLE "0:"
    INDEX 01 05:47:24
  TRACK 118 AUDIO
    TITLE "7:cjc139_3509"
    INDEX 01 05:50:10
  TRACK 119 AUDIO
    TITLE "0:"
    INDEX 01 05:52:33
  TRACK 120 AUDIO
    TITLE "8:cjc139_3510"
    INDEX 01 05:55:19
  TRACK 121 AUDIO
    TITLE "0:"
    INDEX 01 05:57:56
  TRACK 122 AUDIO
    TITLE "7:cjc139_3511"
    INDEX 01 06:00:40
  TRACK 123 AUDIO
    TITLE "0:"
    INDEX 01 06:03:72
  TRACK 124 AUDIO
    TITLE "8:cjc139_3512"
    INDEX 01 06:06:54
  TRACK 125 AUDIO
    TITLE "0:"
    INDEX 01 06:09:57
  TRACK 126 AUDIO
    TITLE "7:cjc139_3513"
    INDEX 01 06:12:45
  TRACK 127 AUDIO
    TITLE "0:"
    INDEX 01 06:14:34
  TRACK 128 AUDIO
    TITLE "8:cjc139_3514"
    INDEX 01 06:17:19
  TRACK 129 AUDIO
    TITLE "0:"
    INDEX 01 06:19:41
  TRACK 130 AUDIO
    TITLE "7:cjc139_3515"
    INDEX 01 06:22:24
  TRACK 131 AUDIO
    TITLE "0:"
    INDEX 01 06:24:13
  TRACK 132 AUDIO
    TITLE "8:cjc139_3516"
    INDEX 01 06:26:73
  TRACK 133 AUDIO
    TITLE "0:"
    INDEX 01 06:29:14
  TRACK 134 AUDIO
    TITLE "7:cjc139_3517"
    INDEX 01 06:32:01
  TRACK 135 AUDIO
    TITLE "0:"
    INDEX 01 06:33:59
  TRACK 136 AUDIO
    TITLE "8:cjc139_3518"
    INDEX 01 06:36:42
  TRACK 137 AUDIO
    TITLE "0:"
    INDEX 01 06:38:43
  TRACK 138 AUDIO
    TITLE "7:cjc139_3519"
    INDEX 01 06:41:31
  TRACK 139 AUDIO
    TITLE "0:"
    INDEX 01 06:43:36
  TRACK 140 AUDIO
    TITLE "8:cjc139_3520"
    INDEX 01 06:46:23
  TRACK 141 AUDIO
    TITLE "0:"
    INDEX 01 06:48:67
